#!OML:ASF H:\Not Pregnant\Project 1\Capture day 1\Session 1\non-pregnant.ASF
:FULLY-SPECIFIED
:DEGREES
1313
root 6.85358 15.4766 37.954 -163.175 220.783 -188.456
lowerback -4.49964 2.22353 6.6661
upperback -8.40621 2.85411 1.00463
thorax -6.00674 0.997314 -2.67724
lowerneck 39.6121 -15.3918 -25.7566
upperneck -28.5164 -26.2564 47.9113
head -2.85815 -18.4247 27.6947
rclavicle 3.13334e-014 1.86858e-014
rhumerus -32.7829 34.814 -110.581
rradius 38.6914
rwrist 13.4336
rhand -9.32329 -1.08507
rfingers 7.12502
rthumb 16.6352 -30.3922
lclavicle 3.13334e-014 1.86858e-014
lhumerus -46.0119 3.05806 83.3677
lradius 32.2962
lwrist 34.477
lhand -20.6102 -12.1246
lfingers 7.12502
lthumb 5.7507 17.7774
rfemur -19.0501 17.196 29.4618
rtibia 31.3336
rfoot -18.3279 19.22
rtoes -2.12271
lfemur -34.527 -12.6312 -0.784131
ltibia 38.2228
lfoot -17.8992 2.00383
ltoes -37.5308
1314
root 6.8523 15.4779 38.0324 -162.856 221.763 -188.636
lowerback -4.60572 2.18659 6.63864
upperback -8.38625 2.7907 1.00255
thorax -5.93122 0.968619 -2.65984
lowerneck 39.4067 -15.2731 -25.7672
upperneck -28.3211 -26.1254 47.9092
head -2.82969 -18.3509 27.6977
rclavicle -7.94145e-014 -3.04141e-014
rhumerus -33.3081 35.5636 -111.064
rradius 39.2019
rwrist 13.1016
rhand -9.12824 -0.996482
rfingers 7.12502
rthumb 16.823 -30.2877
lclavicle -7.94145e-014 -3.04141e-014
lhumerus -46.1605 2.91679 83.466
lradius 32.2949
lwrist 34.4813
lhand -20.3978 -12.0176
lfingers 7.12502
lthumb 5.95578 17.8787
rfemur -18.9213 17.6813 29.2002
rtibia 31.2048
rfoot -18.4134 19.733
rtoes -1.79925
lfemur -34.8311 -13.398 -0.128534
ltibia 37.017
lfoot -18.1356 -0.180216
ltoes -37.8678
1315
root 6.85065 15.478 38.1101 -162.535 222.716 -188.835
lowerback -4.68168 2.13891 6.60656
upperback -8.37644 2.71656 1.01129
thorax -5.88548 0.933916 -2.63008
lowerneck 39.215 -15.1488 -25.7905
upperneck -28.1226 -25.998 47.9083
head -2.79827 -18.279 27.7061
rclavicle -2.40281e-014 -1.07344e-014
rhumerus -33.8472 36.2071 -111.507
rradius 39.651
rwrist 12.8065
rhand -8.92242 -0.932306
rfingers 7.12502
rthumb 17.0211 -30.2066
lclavicle -2.40281e-014 -1.07344e-014
lhumerus -46.3225 2.75378 83.5954
lradius 32.2821
lwrist 34.4817
lhand -20.1392 -11.8652
lfingers 7.12502
lthumb 6.20548 18.0239
rfemur -18.802 18.1743 28.9528
rtibia 31.0974
rfoot -18.5 20.2082
rtoes -1.48454
lfemur -35.1386 -14.0995 0.497442
ltibia 35.8849
lfoot -18.3137 -2.71442
ltoes -37.8347
1316
root 6.84885 15.4768 38.1865 -162.221 223.65 -189.043
lowerback -4.72988 2.08655 6.5625
upperback -8.37047 2.63926 1.02605
thorax -5.86047 0.897802 -2.58859
lowerneck 39.0379 -15.0226 -25.8225
upperneck -27.9277 -25.8767 47.9144
head -2.76407 -18.212 27.7238
rclavicle -4.92737e-014 -1.39149e-014
rhumerus -34.3785 36.7273 -111.89
rradius 40.0343
rwrist 12.5595
rhand -8.70755 -0.872324
rfingers 7.12502
rthumb 17.2279 -30.1287
lclavicle -4.92737e-014 -1.39149e-014
lhumerus -46.4854 2.55783 83.762
lradius 32.2544
lwrist 34.4778
lhand -19.8503 -11.7031
lfingers 7.12502
lthumb 6.48431 18.1777
rfemur -18.6875 18.6775 28.711
rtibia 31.0093
rfoot -18.589 20.6418
rtoes -1.20518
lfemur -35.4402 -14.7044 1.06893
ltibia 34.8456
lfoot -18.3098 -5.65513
ltoes -37.1119
1317
root 6.84713 15.4747 38.2615 -161.904 224.574 -189.262
lowerback -4.75848 2.0277 6.50622
upperback -8.36428 2.55544 1.04531
thorax -5.84731 0.858964 -2.5364
lowerneck 38.8603 -14.8975 -25.8543
upperneck -27.7345 -25.7575 47.9293
head -2.72715 -18.1481 27.7482
rclavicle 7.85199e-015 1.23246e-014
rhumerus -34.8862 37.1408 -112.216
rradius 40.344
rwrist 12.3574
rhand -8.49087 -0.818997
rfingers 7.12502
rthumb 17.4365 -30.057
lclavicle 7.85199e-015 1.23246e-014
lhumerus -46.6388 2.30763 83.9739
lradius 32.2119
lwrist 34.4942
lhand -19.5783 -11.5767
lfingers 7.12502
lthumb 6.74691 18.2958
rfemur -18.5872 19.1986 28.4718
rtibia 30.9383
rfoot -18.6738 21.0382
rtoes -0.949094
lfemur -35.7344 -15.2196 1.58773
ltibia 33.9137
lfoot -17.9726 -8.84637
ltoes -35.6683
1318
root 6.84529 15.4723 38.3358 -161.588 225.489 -189.492
lowerback -4.78897 1.96559 6.45523
upperback -8.34392 2.46655 1.05729
thorax -5.81759 0.818022 -2.4946
lowerneck 38.6691 -14.7806 -25.8704
upperneck -27.5412 -25.6398 47.9563
head -2.68737 -18.088 27.7746
rclavicle 2.31336e-014 3.24019e-014
rhumerus -35.3333 37.4501 -112.481
rradius 40.565
rwrist 12.1907
rhand -8.28291 -0.773006
rfingers 7.12502
rthumb 17.6366 -29.9931
lclavicle 2.31336e-014 3.24019e-014
lhumerus -46.7604 1.99116 84.2279
lradius 32.1428
lwrist 34.5172
lhand -19.3336 -11.4711
lfingers 7.12502
lthumb 6.98313 18.3937
rfemur -18.4906 19.7233 28.2333
rtibia 30.8835
rfoot -18.7566 21.4157
rtoes -0.689882
lfemur -36.0058 -15.6651 2.05126
ltibia 33.1083
lfoot -17.1623 -12.1116
ltoes -33.2495
1319
root 6.84352 15.4692 38.41 -161.267 226.404 -189.748
lowerback -4.81291 1.90671 6.41234
upperback -8.31572 2.38244 1.07084
thorax -5.78241 0.779448 -2.45581
lowerneck 38.4821 -14.6645 -25.8914
upperneck -27.3495 -25.529 47.9981
head -2.64074 -18.0348 27.8122
rclavicle 4.16702e-014 1.09332e-014
rhumerus -35.7341 37.6443 -112.675
rradius 40.6935
rwrist 12.0499
rhand -8.10112 -0.726213
rfingers 7.12502
rthumb 17.8115 -29.9305
lclavicle 4.16702e-014 1.09332e-014
lhumerus -46.8673 1.63451 84.5213
lradius 32.0498
lwrist 34.5016
lhand -19.1244 -11.4081
lfingers 7.12502
lthumb 7.18511 18.4499
rfemur -18.3926 20.2604 28.0055
rtibia 30.8448
rfoot -18.8406 21.7751
rtoes -0.452143
lfemur -36.2291 -16.0078 2.44951
ltibia 32.4441
lfoot -15.9983 -15.0585
ltoes -30.4061
1320
root 6.84247 15.4647 38.484 -160.929 227.316 -190.042
lowerback -4.82241 1.85155 6.38995
upperback -8.28396 2.30452 1.08815
thorax -5.75064 0.742875 -2.4249
lowerneck 38.3045 -14.5493 -25.9166
upperneck -27.1616 -25.4257 48.0523
head -2.58948 -17.9884 27.8614
rclavicle -1.30204e-014 -1.07344e-014
rhumerus -36.0928 37.7268 -112.8
rradius 40.7256
rwrist 11.9368
rhand -7.96771 -0.693224
rfingers 7.12502
rthumb 17.9399 -29.8858
lclavicle -1.30204e-014 -1.07344e-014
lhumerus -46.9555 1.23851 84.854
lradius 31.9226
lwrist 34.4469
lhand -18.9399 -11.3467
lfingers 7.12502
lthumb 7.36314 18.5052
rfemur -18.2961 20.8054 27.7978
rtibia 30.8211
rfoot -18.925 22.1235
rtoes -0.232345
lfemur -36.3996 -16.2698 2.80326
ltibia 31.9337
lfoot -14.6366 -17.4575
ltoes -27.4131
1321
root 6.84248 15.4591 38.5582 -160.594 228.216 -190.353
lowerback -4.81783 1.79469 6.38037
upperback -8.24365 2.22535 1.10445
thorax -5.71737 0.705255 -2.40253
lowerneck 38.1268 -14.4374 -25.944
upperneck -26.9742 -25.3296 48.1141
head -2.53252 -17.9474 27.9137
rclavicle -9.46712e-015 2.98177e-015
rhumerus -36.3948 37.704 -112.85
rradius 40.6521
rwrist 11.8529
rhand -7.90048 -0.679105
rfingers 7.12502
rthumb 18.0046 -29.8657
lclavicle -9.46712e-015 2.98177e-015
lhumerus -47.0225 0.858719 85.1923
lradius 31.7637
lwrist 34.3116
lhand -18.7433 -11.2805
lfingers 7.12502
lthumb 7.55292 18.5647
rfemur -18.1997 21.3503 27.5956
rtibia 30.8182
rfoot -19.0148 22.4557
rtoes -0.0277673
lfemur -36.5086 -16.4929 3.11153
ltibia 31.5818
lfoot -13.3903 -19.1794
ltoes -24.9425
1322
root 6.84369 15.4524 38.633 -160.272 229.093 -190.677
lowerback -4.79243 1.73244 6.38491
upperback -8.19607 2.14068 1.12061
thorax -5.68825 0.664236 -2.38874
lowerneck 37.9492 -14.3322 -25.9709
upperneck -26.7873 -25.2427 48.1747
head -2.47176 -17.9111 27.9589
rclavicle -9.95663e-014 -2.68359e-014
rhumerus -36.6521 37.5754 -112.822
rradius 40.491
rwrist 11.8002
rhand -7.89316 -0.683028
rfingers 7.12502
rthumb 18.0116 -29.869
lclavicle -9.95663e-014 -2.68359e-014
lhumerus -47.0663 0.513303 85.5198
lradius 31.5786
lwrist 34.0947
lhand -18.5187 -11.1949
lfingers 7.12502
lthumb 7.76967 18.6423
rfemur -18.0941 21.8792 27.3996
rtibia 30.839
rfoot -19.1221 22.7715
rtoes 0.152785
lfemur -36.5395 -16.6566 3.3564
ltibia 31.3869
lfoot -12.4156 -20.2951
ltoes -23.1667
1323
root 6.84621 15.4445 38.7088 -159.966 229.953 -190.998
lowerback -4.75301 1.66909 6.40746
upperback -8.14679 2.05531 1.12614
thorax -5.66464 0.621461 -2.3964
lowerneck 37.784 -14.2281 -25.9992
upperneck -26.5965 -25.1625 48.2347
head -2.40892 -17.879 28.0043
rclavicle 3.68746e-014 3.97569e-016
rhumerus -36.8661 37.329 -112.716
rradius 40.2404
rwrist 11.7938
rhand -7.93423 -0.707592
rfingers 7.12502
rthumb 17.9721 -29.8972
lclavicle 3.68746e-014 3.97569e-016
lhumerus -47.0952 0.196388 85.8303
lradius 31.3674
lwrist 33.8015
lhand -18.2736 -11.112
lfingers 7.12502
lthumb 8.00632 18.7164
rfemur -17.9858 22.3965 27.1949
rtibia 30.885
rfoot -19.2428 23.0707
rtoes 0.330896
lfemur -36.4836 -16.7231 3.50735
ltibia 31.3413
lfoot -11.8244 -21.0011
ltoes -22.2017
1324
root 6.84991 15.4357 38.7855 -159.7 230.78 -191.296
lowerback -4.7034 1.59712 6.43801
upperback -8.08789 1.95887 1.11826
thorax -5.63694 0.572847 -2.42273
lowerneck 37.6182 -14.1286 -26.0189
upperneck -26.4023 -25.0844 48.2919
head -2.34655 -17.848 28.0439
rclavicle 5.04416e-014 2.76311e-014
rhumerus -37.0154 36.9659 -112.522
rradius 39.8941
rwrist 11.8411
rhand -8.01632 -0.731683
rfingers 7.12502
rthumb 17.8931 -29.9285
lclavicle 5.04416e-014 2.76311e-014
lhumerus -47.0882 -0.0863606 86.114
lradius 31.1257
lwrist 33.4344
lhand -18.0288 -11.0585
lfingers 7.12502
lthumb 8.24251 18.7607
rfemur -17.8655 22.8996 26.977
rtibia 30.9526
rfoot -19.3843 23.3252
rtoes 0.469495
lfemur -36.3373 -16.6976 3.54366
ltibia 31.4321
lfoot -11.5426 -21.4668
ltoes -21.5855
